# xmcd
#
# Track frame offsets:
#	150
#	11298
#	26498
#	43299
#	55087
#	68148
#	80294
#	93194
#	107249
#	120135
#	130201
#	141712
#	152006
#	162287
#	170432
#	181060
#
# Disc length: 2535 seconds
#
# Revision: 1
# Processed by: cddbd v1.5.2PL0 Copyright (c) Steve Scherf et al.
# Submitted via: CDmax 2.0
#
DISCID=c709e510
DTITLE=Various Artist - Walk the line
DYEAR=2005
DGENRE=Country
TTITLE0=Get Rhytm
TTITLE1=I walk the line
TTITLE2=Wildwood flower
TTITLE3=Lewis Boogie
TTITLE4=Ring of fire
TTITLE5=You're my baby
TTITLE6=Cry cry cry
TTITLE7=Folsom Prison Blues
TTITLE8=That's all right
TTITLE9=Juke Box Blues
TTITLE10=It ain't me babe
TTITLE11=Home of the blues
TTITLE12=Milk cow blues
TTITLE13=I'm a long way from house
TTITLE14=Cocaine blues
TTITLE15=Jackson
EXTD=
EXTT0=
EXTT1=
EXTT2=
EXTT3=
EXTT4=
EXTT5=
EXTT6=
EXTT7=
EXTT8=
EXTT9=
EXTT10=
EXTT11=
EXTT12=
EXTT13=
EXTT14=
EXTT15=
PLAYORDER=
